<svg width="50" height="50" viewBox="0 0 50 50" fill="none" xmlns="http://www.w3.org/2000/svg">
<g clip-path="url(#clip0)">
<path d="M39.5496 47.4221C39.5496 47.6977 39.3263 47.921 39.0508 47.921H6.83475C6.5602 47.944 6.31907 47.7399 6.29608 47.4655C6.29491 47.4511 6.29432 47.4367 6.29432 47.4221V3.32779C6.29374 2.94256 6.23061 2.55996 6.10726 2.195H38.1674C38.9365 2.20065 39.5553 2.82867 39.5497 3.59776C39.5497 3.60127 39.5496 3.60478 39.5496 3.60838V21.9403H41.628V3.60838C41.6338 1.68965 40.086 0.127984 38.1674 0.116585H3.96649C3.15531 -0.123184 2.27944 0.00999916 1.57631 0.480281C0.611971 1.16549 0.0449437 2.28006 0.0590706 3.46292V11.0389C0.0124029 12.4213 1.09531 13.5798 2.47771 13.6264C2.47858 13.6264 2.47956 13.6265 2.48043 13.6265H4.21591V47.4221C4.21591 48.8456 5.36984 49.9994 6.79315 49.9994H39.0092C40.4324 50.0224 41.6047 48.8872 41.6277 47.464C41.6279 47.4501 41.628 47.4361 41.628 47.4221V38.5679H39.5496V47.4221ZM4.21591 11.5481H2.48043C2.31412 11.5481 2.13749 11.3403 2.13749 11.0493V3.46292C2.12346 2.97043 2.34316 2.50034 2.72985 2.1951C2.86118 2.10488 3.01736 2.05763 3.17675 2.05997V2.1951H3.61322C3.99962 2.44023 4.22857 2.87047 4.216 3.32789V11.5481H4.21591Z" fill="#A17F5C"/>
<path d="M49.6406 24.4033L46.4087 21.1714C46.0034 20.7684 45.3487 20.7684 44.9434 21.1714L28.8042 37.3105C28.7167 37.401 28.6462 37.5066 28.5964 37.6223L25.9048 43.5354C25.6717 44.0599 25.9078 44.674 26.4323 44.9072C26.7011 45.0266 27.0079 45.0266 27.2766 44.9072L33.1897 42.2156C33.3054 42.1658 33.411 42.0953 33.5015 42.0077L49.6406 25.8686C50.0436 25.4633 50.0436 24.8087 49.6406 24.4033ZM28.9393 41.8727L29.8642 39.7943L30.9761 40.9062L28.9393 41.8727ZM32.7637 39.7943L31.0074 38.0484L41.9088 27.1365L43.7066 28.9032L32.7637 39.7943ZM45.1409 27.4275L43.3845 25.6711L45.6812 23.3745L47.4375 25.1308L45.1409 27.4275Z" fill="#A17F5C"/>
<path d="M32.2749 7.39136H13.5688V9.46977H32.2749V7.39136Z" fill="#A17F5C"/>
<path d="M32.2749 14.666H13.5688V16.7444H32.2749V14.666Z" fill="#A17F5C"/>
<path d="M32.2749 21.9404H13.5688V24.0188H32.2749V21.9404Z" fill="#A17F5C"/>
<path d="M21.8826 29.2151H13.5688V31.2935H21.8826V29.2151Z" fill="#A17F5C"/>
<path d="M27.0789 29.2151H25.0005V31.2935H27.0789V29.2151Z" fill="#A17F5C"/>
<path d="M32.2752 29.2151H30.1968V31.2935H32.2752V29.2151Z" fill="#A17F5C"/>
</g>
<defs>
<clipPath id="clip0">
<rect width="50" height="50" fill="white"/>
</clipPath>
</defs>
</svg>
