<svg width="40" height="40" viewBox="0 0 40 40" fill="none" xmlns="http://www.w3.org/2000/svg">
<path d="M33.3264 5.89233H28.067C23.9731 5.89233 20.6424 9.22302 20.6424 13.317V17.7557H16.4804C16.0492 17.7557 15.6992 18.1055 15.6992 18.537V24.5477C15.6992 24.9792 16.0492 25.329 16.4804 25.329H20.6424V38.4375H2.34375C1.91284 38.4375 1.5625 38.0872 1.5625 37.6562V2.34375C1.5625 1.91284 1.91284 1.5625 2.34375 1.5625H3.90625C4.33777 1.5625 4.6875 1.21277 4.6875 0.78125C4.6875 0.349731 4.33777 0 3.90625 0H2.34375C1.05133 0 0 1.05133 0 2.34375V37.6562C0 38.9487 1.05133 40 2.34375 40H21.4236C21.8552 40 22.2049 39.6503 22.2049 39.2188V24.5477C22.2049 24.1162 21.8552 23.7665 21.4236 23.7665H17.262V19.3179H21.4236C21.8552 19.3179 22.2049 18.9682 22.2049 18.5367V13.317C22.2049 10.0845 24.8346 7.45453 28.0673 7.45453H32.5455V11.9028H28.0673C27.3007 11.9028 26.6531 12.5504 26.6531 13.317V18.5367C26.6531 18.9682 27.0029 19.3179 27.4344 19.3179H32.4359L31.8506 23.7665H27.4344C27.0032 23.7665 26.6531 24.1162 26.6531 24.5477V39.2188C26.6531 39.6503 27.0032 40 27.4344 40H29.8438C30.2753 40 30.625 39.6503 30.625 39.2188C30.625 38.7872 30.2753 38.4375 29.8438 38.4375H28.2156V25.329H32.5357C32.9279 25.329 33.2593 25.0381 33.3102 24.6497L34.1013 18.6386C34.1306 18.4158 34.0625 18.1909 33.9142 18.0219C33.7659 17.8525 33.5516 17.7557 33.3267 17.7557H28.2159V13.4656H33.3267C33.7582 13.4656 34.108 13.1158 34.108 12.6843V6.67358C34.1077 6.24207 33.7579 5.89233 33.3264 5.89233Z" fill="#A17F5C"/>
<path d="M37.6562 0H10.1562C9.72473 0 9.375 0.349731 9.375 0.78125C9.375 1.21277 9.72473 1.5625 10.1562 1.5625H37.6562C38.0872 1.5625 38.4375 1.91284 38.4375 2.34375V37.6562C38.4375 38.0872 38.0872 38.4375 37.6562 38.4375H36.0938C35.6622 38.4375 35.3125 38.7872 35.3125 39.2188C35.3125 39.6503 35.6622 40 36.0938 40H37.6562C38.9487 40 40 38.9487 40 37.6562V2.34375C40 1.05133 38.9487 0 37.6562 0Z" fill="#A17F5C"/>
<path d="M32.9691 38.4375H32.9684C32.5369 38.4375 32.1875 38.7872 32.1875 39.2188C32.1875 39.6503 32.5375 40 32.9691 40C33.4006 40 33.7503 39.6503 33.7503 39.2188C33.7503 38.7872 33.4006 38.4375 32.9691 38.4375Z" fill="#A17F5C"/>
<path d="M7.03156 1.5625C7.46307 1.5625 7.81281 1.21277 7.81281 0.78125C7.81281 0.349731 7.46307 0 7.03156 0H7.03094C6.59943 0 6.25 0.349731 6.25 0.78125C6.25 1.21277 6.60004 1.5625 7.03156 1.5625Z" fill="#A17F5C"/>
</svg>
