<svg width="109" height="106" viewBox="0 0 109 106" fill="none" xmlns="http://www.w3.org/2000/svg">
<g clip-path="url(#clip0)">
<path d="M107.402 102.38C103.423 102.38 100.158 99.3639 99.8896 95.5598C104.462 93.4692 107.637 88.9483 107.637 83.718C107.637 76.5061 101.604 70.639 94.1877 70.639C90.7132 70.639 87.5424 71.9269 85.1533 74.0377L74.7369 56.4926C75.301 55.8299 76.1961 54.8351 77.2736 53.8398C79.519 51.7663 81.6064 50.5786 83.1511 50.4952C83.6608 50.4677 84.1266 50.2046 84.4038 49.7879C87.3573 45.349 107.104 4.71674 107.943 2.98901C108.307 2.24131 108.004 1.34805 107.255 0.956453C106.506 0.565377 105.574 0.812454 105.132 1.5195L72.8093 53.356L40.4862 1.51924C40.0452 0.812454 39.1126 0.564859 38.3631 0.956194C37.614 1.34779 37.3117 2.24105 37.675 2.98875C38.5139 4.71648 58.261 45.349 61.2145 49.7876C61.4918 50.2043 61.9575 50.4675 62.4673 50.4949C64.0122 50.5783 66.0996 51.766 68.3447 53.8395C69.4222 54.8348 70.3173 55.8296 70.8814 56.4924L60.4651 74.0374C58.0759 71.9269 54.9051 70.6387 51.4307 70.6387C44.0147 70.6387 37.9815 76.5059 37.9815 83.7177C37.9815 90.9296 44.0147 96.7967 51.4307 96.7967C58.8467 96.7967 64.8799 90.9296 64.8799 83.7177C64.8799 81.0698 64.0641 78.605 62.6678 76.5434L72.8096 59.4609L82.9513 76.5434C81.555 78.605 80.7393 81.0701 80.7393 83.7177C80.7393 90.9296 86.7725 96.7967 94.1885 96.7967C95.0772 96.7967 95.9454 96.7102 96.7864 96.5497C97.5345 101.597 102.009 105.488 107.403 105.488C108.285 105.488 109.001 104.792 109.001 103.934C109.001 103.076 108.285 102.38 107.402 102.38ZM91.1492 29.938C87.0812 38.0921 83.5348 45.0481 82.093 47.4968C81.2858 47.6437 80.4831 47.9249 79.7014 48.2974L91.1492 29.938ZM63.5254 47.4968C62.0835 45.0481 58.5375 38.0921 54.4691 29.938L65.9169 48.2974C65.1353 47.9249 64.3329 47.6437 63.5254 47.4968ZM51.4304 93.6891C45.7767 93.6891 41.1771 89.2161 41.1771 83.718C41.1771 78.2199 45.7767 73.7468 51.4304 73.7468C57.0841 73.7468 61.6838 78.2199 61.6838 83.718C61.6838 89.2161 57.0841 93.6891 51.4304 93.6891ZM83.9346 83.718C83.9346 78.2199 88.5342 73.7468 94.1879 73.7468C99.8417 73.7468 104.441 78.2199 104.441 83.718C104.441 89.2161 99.8417 93.6891 94.1879 93.6891C88.5342 93.6891 83.9346 89.2161 83.9346 83.718Z" fill="white"/>
<path d="M28.7038 3.62017C29.5861 3.62017 30.3017 2.92426 30.3017 2.06623C30.3017 1.20819 29.5861 0.512283 28.7038 0.512283H7.51743C3.37215 0.512283 0 3.79162 0 7.82256V90.5328C0 94.5635 3.37215 97.8431 7.51743 97.8431H28.704C29.5864 97.8431 30.302 97.1472 30.302 96.2892C30.302 95.4311 29.5864 94.7352 28.704 94.7352H9.11536V91.814H28.704C29.5864 91.814 30.302 91.1181 30.302 90.2601C30.302 89.4021 29.5864 88.7062 28.704 88.7062H9.11536V85.4939H28.704C29.5864 85.4939 30.302 84.798 30.302 83.94C30.302 83.0819 29.5864 82.386 28.704 82.386H9.11536V79.1735H28.704C29.5864 79.1735 30.302 78.4776 30.302 77.6195C30.302 76.7615 29.5864 76.0656 28.704 76.0656H9.11536V72.8533H28.704C29.5864 72.8533 30.302 72.1574 30.302 71.2994C30.302 70.4414 29.5864 69.7454 28.704 69.7454H9.11536V66.5332H28.704C29.5864 66.5332 30.302 65.8373 30.302 64.9792C30.302 64.1212 29.5864 63.4253 28.704 63.4253H9.11536V60.2128H28.704C29.5864 60.2128 30.302 59.5169 30.302 58.6588C30.302 57.8008 29.5864 57.1049 28.704 57.1049H9.11536V53.8926H28.704C29.5864 53.8926 30.302 53.1967 30.302 52.3387C30.302 51.4806 29.5864 50.7847 28.704 50.7847H9.11536V47.5714H28.704C29.5864 47.5714 30.302 46.8755 30.302 46.0175C30.302 45.1594 29.5864 44.4635 28.704 44.4635H9.11536V41.2513H28.704C29.5864 41.2513 30.302 40.5554 30.302 39.6973C30.302 38.8393 29.5864 38.1434 28.704 38.1434H9.11536V34.9309H28.704C29.5864 34.9309 30.302 34.235 30.302 33.3769C30.302 32.5189 29.5864 31.823 28.704 31.823H9.11536V28.6107H28.704C29.5864 28.6107 30.302 27.9148 30.302 27.0568C30.302 26.1987 29.5864 25.5028 28.704 25.5028H9.11536V22.2898H28.704C29.5864 22.2898 30.302 21.5939 30.302 20.7358C30.302 19.8778 29.5864 19.1819 28.704 19.1819H9.11536V15.9696H28.704C29.5864 15.9696 30.302 15.2737 30.302 14.4157C30.302 13.5576 29.5864 12.8617 28.704 12.8617H9.11536V9.64922H28.704C29.5864 9.64922 30.302 8.95331 30.302 8.09527C30.302 7.23724 29.5864 6.54133 28.704 6.54133H9.11536V3.62017H28.7038ZM3.19585 90.5328V7.82256C3.19585 6.05443 4.32585 4.54088 5.91951 3.92138V94.4337C4.32585 93.8142 3.19585 92.3007 3.19585 90.5328Z" fill="white"/>
</g>
<defs>
<clipPath id="clip0">
<rect width="109" height="106" fill="white"/>
</clipPath>
</defs>
</svg>
