<svg width="110" height="105" viewBox="0 0 110 105" fill="none" xmlns="http://www.w3.org/2000/svg">
<path d="M80.2634 23.3485V16.7227C80.2634 15.8623 79.5333 15.1646 78.6311 15.1646H77.8322V1.55811C77.8322 0.697746 77.1012 0 76.199 0C75.2977 0 74.5667 0.697746 74.5667 1.55811V15.1646H35.6053V1.55811C35.6053 0.697746 34.8743 0 33.973 0C33.0708 0 32.3399 0.697746 32.3399 1.55811V15.1646H31.5409C30.6387 15.1646 29.9078 15.8623 29.9078 16.7227V23.3477C27.2885 25.0724 25.5664 27.9563 25.5664 31.2175V46.5015C25.5664 49.5913 27.1114 52.3406 29.5016 54.0886V93.9434C29.5016 100.04 34.6973 105 41.0847 105H69.0874C75.4748 105 80.6713 100.04 80.6713 93.9434V76.3019C80.6713 75.4415 79.9403 74.7438 79.0382 74.7438C78.136 74.7438 77.4059 75.4415 77.4059 76.3019V93.9434C77.4059 98.3213 73.6746 101.883 69.0874 101.883H41.0847C36.4983 101.883 32.767 98.3213 32.767 93.9434V55.6699C33.6583 55.9198 34.6008 56.056 35.5751 56.056H74.5961C75.5713 56.056 76.5137 55.9198 77.4059 55.6699V70.0678C77.4059 70.9282 78.136 71.6259 79.0382 71.6259C79.9403 71.6259 80.6713 70.9282 80.6713 70.0678V54.0878C83.0606 52.3398 84.6048 49.5905 84.6048 46.5015V31.2175C84.6048 27.9563 82.8835 25.0732 80.2634 23.3485ZM33.1741 18.2808H76.9988V21.9434C76.2284 21.7615 75.4236 21.663 74.5961 21.663H35.5759C34.7476 21.663 33.9436 21.7615 33.1741 21.9426V18.2808ZM81.3402 46.5015C81.3402 50.0511 78.3147 52.939 74.5961 52.939H35.5759C31.8573 52.939 28.8319 50.0511 28.8319 46.5015V31.2175C28.8319 28.3432 30.815 25.9039 33.5442 25.0788V27.1624C33.5442 31.7463 37.4516 35.4761 42.2537 35.4761H42.3695C43.2717 35.4761 44.0027 34.7784 44.0027 33.9172C44.0027 33.0568 43.2717 32.3591 42.3695 32.3591H42.2537C39.2518 32.3591 36.8096 30.0279 36.8096 27.1624V24.78H73.3633V27.1624C73.3633 30.0279 70.9211 32.3591 67.9192 32.3591H48.9013C47.9991 32.3591 47.2681 33.0568 47.2681 33.9172C47.2681 34.7784 47.9991 35.4761 48.9013 35.4761H67.9192C72.7213 35.4761 76.6287 31.7463 76.6287 27.1624V25.0796C79.3571 25.9039 81.3402 28.344 81.3402 31.2175V46.5015Z" fill="white"/>
<path d="M46.2188 67.9017V76.0247C46.2188 80.6918 50.1967 84.489 55.0853 84.489C59.9746 84.489 63.9518 80.6918 63.9518 76.0247V67.9017C63.9518 63.2346 59.9746 59.4374 55.0853 59.4374C50.1967 59.4374 46.2188 63.2346 46.2188 67.9017ZM60.6871 71.5378H49.4842V69.4598H60.6871V71.5378ZM55.0861 81.372C51.9969 81.372 49.485 78.9735 49.485 76.0247V74.6548H60.6871V76.0247C60.6871 78.9735 58.1745 81.372 55.0861 81.372ZM60.4438 66.3428H49.7276C50.4283 64.1526 52.565 62.5544 55.0853 62.5544C57.6063 62.5552 59.743 64.1526 60.4438 66.3428Z" fill="white"/>
<path d="M40.0052 12.5947C40.9066 12.5947 41.6375 11.8969 41.6375 11.0358V1.55811C41.6375 0.697746 40.9066 0 40.0052 0C39.103 0 38.3721 0.697746 38.3721 1.55811V11.0358C38.3721 11.8969 39.103 12.5947 40.0052 12.5947Z" fill="white"/>
<path d="M46.0374 12.5947C46.9388 12.5947 47.6698 11.8969 47.6698 11.0358V1.55811C47.6698 0.697746 46.9388 0 46.0374 0C45.1353 0 44.4043 0.697746 44.4043 1.55811V11.0358C44.4043 11.8969 45.1353 12.5947 46.0374 12.5947Z" fill="white"/>
<path d="M52.0706 12.5947C52.972 12.5947 53.703 11.8969 53.703 11.0358V1.55811C53.703 0.697746 52.972 0 52.0706 0C51.1685 0 50.4375 0.697746 50.4375 1.55811V11.0358C50.4375 11.8969 51.1685 12.5947 52.0706 12.5947Z" fill="white"/>
<path d="M58.102 12.5947C59.0042 12.5947 59.7352 11.8969 59.7352 11.0358V1.55811C59.7352 0.697746 59.0042 0 58.102 0C57.2007 0 56.4697 0.697746 56.4697 1.55811V11.0358C56.4697 11.8969 57.2007 12.5947 58.102 12.5947Z" fill="white"/>
<path d="M64.1351 12.5947C65.0364 12.5947 65.7674 11.8969 65.7674 11.0358V1.55811C65.7674 0.697746 65.0364 0 64.1351 0C63.2329 0 62.502 0.697746 62.502 1.55811V11.0358C62.502 11.8969 63.2329 12.5947 64.1351 12.5947Z" fill="white"/>
<path d="M70.1673 12.5947C71.0687 12.5947 71.7996 11.8969 71.7996 11.0358V1.55811C71.7996 0.697746 71.0687 0 70.1673 0C69.2652 0 68.5342 0.697746 68.5342 1.55811V11.0358C68.5342 11.8969 69.2652 12.5947 70.1673 12.5947Z" fill="white"/>
</svg>
