<svg width="36" height="36" viewBox="0 0 36 36" fill="none" xmlns="http://www.w3.org/2000/svg">
<path d="M32.2418 0H3.75824C1.68599 0 0 1.68599 0 3.75824V32.2418C0 34.314 1.68599 36 3.75824 36H32.2418C34.314 36 36 34.314 36 32.2418V3.75824C36 1.68599 34.314 0 32.2418 0ZM34.8132 3.75824V11.0769H24.1977C22.5517 9.60187 20.379 8.7033 18 8.7033C15.6211 8.7033 13.4483 9.60187 11.8024 11.0769H9.89011V1.18681H32.2418C33.6597 1.18681 34.8132 2.3404 34.8132 3.75824ZM18 9.89011C22.4718 9.89011 26.1099 13.5282 26.1099 18C26.1099 22.4718 22.4718 26.1099 18 26.1099C13.5282 26.1099 9.89011 22.4718 9.89011 18C9.89011 13.5282 13.5282 9.89011 18 9.89011ZM7.12088 11.0769V1.18681H8.7033V11.0769H7.12088ZM4.35165 11.0769V1.18681H5.93407V11.0769H4.35165ZM3.16484 1.25668V11.0769H1.18681V3.75824C1.18681 2.54461 2.03222 1.52537 3.16484 1.25668ZM32.2418 34.8132H3.75824C2.3404 34.8132 1.18681 33.6596 1.18681 32.2418V12.2637H10.6888C9.44561 13.8448 8.7033 15.8374 8.7033 18C8.7033 23.1262 12.8738 27.2967 18 27.2967C23.1262 27.2967 27.2967 23.1262 27.2967 18C27.2967 15.8374 26.5544 13.8448 25.3112 12.2637H34.8132V32.2418C34.8132 33.6596 33.6597 34.8132 32.2418 34.8132Z" fill="#A17F5C"/>
<path d="M18 24.1319C21.3811 24.1319 24.1319 21.3812 24.1319 18C24.1319 14.6189 21.3811 11.8682 18 11.8682C14.6189 11.8682 11.8682 14.6189 11.8682 18C11.8682 21.3812 14.6189 24.1319 18 24.1319ZM18 13.055C20.7268 13.055 22.9451 15.2734 22.9451 18C22.9451 20.7267 20.7268 22.9451 18 22.9451C15.2734 22.9451 13.055 20.7267 13.055 18C13.055 15.2734 15.2734 13.055 18 13.055Z" fill="#A17F5C"/>
<path d="M18.0001 21.7567C18.0002 21.7567 18.0001 21.7567 18.0001 21.7567C19.0049 21.7567 19.9488 21.3663 20.6576 20.6574C21.744 19.571 22.059 17.9525 21.46 16.5343C21.3324 16.2323 20.984 16.0911 20.6825 16.2185C20.3806 16.3461 20.2391 16.6942 20.3667 16.9961C20.7769 17.9672 20.5617 19.075 19.8184 19.8182C19.3337 20.3029 18.688 20.5699 18.0002 20.5699C17.3124 20.5699 16.6667 20.3029 16.1819 19.8182C15.9502 19.5865 15.5744 19.5865 15.3428 19.8182C15.111 20.05 15.111 20.4257 15.3428 20.6574C16.0515 21.3664 16.9953 21.7567 18.0001 21.7567Z" fill="#A17F5C"/>
<path d="M26.7038 9.09885H29.0774C29.4052 9.09885 29.6708 8.83317 29.6708 8.50545C29.6708 8.17773 29.4052 7.91204 29.0774 7.91204H27.2972V4.35161H31.6488V7.91204H31.451C31.1232 7.91204 30.8576 8.17773 30.8576 8.50545C30.8576 8.83317 31.1232 9.09885 31.451 9.09885H32.2422C32.57 9.09885 32.8356 8.83317 32.8356 8.50545V3.7582C32.8356 3.43048 32.57 3.16479 32.2422 3.16479H26.7038C26.376 3.16479 26.1104 3.43048 26.1104 3.7582V8.50545C26.1104 8.83317 26.376 9.09885 26.7038 9.09885Z" fill="#A17F5C"/>
</svg>
