<svg width="36" height="36" viewBox="0 0 36 36" fill="none" xmlns="http://www.w3.org/2000/svg">
<path d="M26.8594 34.5938H2.10938C1.72156 34.5938 1.40625 34.2784 1.40625 33.8906V2.10938C1.40625 1.72156 1.72156 1.40625 2.10938 1.40625H3.51562C3.90399 1.40625 4.21875 1.09149 4.21875 0.703125C4.21875 0.314758 3.90399 0 3.51562 0H2.10938C0.946198 0 0 0.946198 0 2.10938V33.8906C0 35.0538 0.946198 36 2.10938 36H26.8594C27.2475 36 27.5625 35.6852 27.5625 35.2969C27.5625 34.9085 27.2477 34.5938 26.8594 34.5938Z" fill="#A17F5C"/>
<path d="M33.8906 0H9.14062C8.75226 0 8.4375 0.314758 8.4375 0.703125C8.4375 1.09149 8.75226 1.40625 9.14062 1.40625H33.8906C34.2784 1.40625 34.5938 1.72156 34.5938 2.10938V33.8906C34.5938 34.2784 34.2784 34.5938 33.8906 34.5938H32.4844C32.096 34.5938 31.7812 34.9085 31.7812 35.2969C31.7812 35.6852 32.096 36 32.4844 36H33.8906C35.0538 36 36 35.0535 36 33.8906V2.10938C36 0.946198 35.0538 0 33.8906 0Z" fill="#A17F5C"/>
<path d="M8.66602 12.4277C10.7111 12.4277 12.375 10.7639 12.375 8.71875C12.375 6.67337 10.7111 5.00977 8.66602 5.00977C6.62064 5.00977 4.95703 6.67365 4.95703 8.71875C4.95703 10.7639 6.62064 12.4277 8.66602 12.4277ZM8.66602 6.41602C9.93576 6.41602 10.9688 7.44901 10.9688 8.71875C10.9688 9.98849 9.93576 11.0215 8.66602 11.0215C7.39627 11.0215 6.36328 9.98849 6.36328 8.71875C6.36328 7.44901 7.39627 6.41602 8.66602 6.41602Z" fill="#A17F5C"/>
<path d="M24.2051 12.7793C22.6511 12.7793 21.1512 13.3198 19.9512 14.2751V13.834C19.9512 13.4456 19.6361 13.1309 19.248 13.1309H14.3438C13.9554 13.1309 13.6406 13.4456 13.6406 13.834V30.2871C13.6406 30.6755 13.9554 30.9902 14.3438 30.9902H19.5117C19.8998 30.9902 20.2148 30.6755 20.2148 30.2871V20.7905C20.2148 19.6177 21.169 18.6636 22.3418 18.6636C23.5146 18.6636 24.4688 19.6177 24.4688 20.7905V30.2871C24.4688 30.6755 24.7835 30.9902 25.1719 30.9902H30.3398C30.7279 30.9902 31.043 30.6755 31.043 30.2871V19.6172C31.043 15.8467 27.9753 12.7793 24.2051 12.7793ZM29.6367 29.584H25.875V20.7905C25.875 18.8424 24.2899 17.2573 22.3418 17.2573C20.3934 17.2573 18.8086 18.8424 18.8086 20.7905V29.584H15.0469V14.5371H18.5449V16.0145C18.5449 16.3188 18.7405 16.5885 19.03 16.683C19.3189 16.7772 19.6364 16.6748 19.8158 16.429C20.8413 15.0244 22.4821 14.1855 24.2051 14.1855C27.2 14.1855 29.6367 16.622 29.6367 19.6172V29.584Z" fill="#A17F5C"/>
<path d="M6.08203 13.1309C5.69366 13.1309 5.37891 13.4456 5.37891 13.834V30.2871C5.37891 30.6755 5.69366 30.9902 6.08203 30.9902H11.25C11.6381 30.9902 11.9531 30.6755 11.9531 30.2871V13.834C11.9531 13.4456 11.6381 13.1309 11.25 13.1309H6.08203ZM10.5469 29.584H6.78516V14.5371H10.5469V29.584Z" fill="#A17F5C"/>
<path d="M6.3284 1.40625C6.71649 1.40625 7.03152 1.09149 7.03152 0.703125C7.03152 0.314758 6.71649 0 6.3284 0H6.32785C5.93948 0 5.625 0.314758 5.625 0.703125C5.625 1.09149 5.94003 1.40625 6.3284 1.40625Z" fill="#A17F5C"/>
<path d="M29.6721 34.5938H29.6716C29.2832 34.5938 28.9688 34.9085 28.9688 35.2969C28.9688 35.6852 29.2838 36 29.6721 36C30.0605 36 30.3753 35.6852 30.3753 35.2969C30.3753 34.9085 30.0605 34.5938 29.6721 34.5938Z" fill="#A17F5C"/>
</svg>
