<svg width="50" height="50" viewBox="0 0 50 50" fill="none" xmlns="http://www.w3.org/2000/svg">
<g clip-path="url(#clip0)">
<path d="M16.4038 34.226C18.463 37.1293 20.5188 39.726 21.8813 41.3984C22.0797 41.6418 22.2655 41.8676 22.4455 42.0851H18.3339C17.8736 42.0851 17.5006 42.4581 17.5006 42.9184C17.5006 43.3786 17.8736 43.7517 18.3339 43.7517H31.6671C32.1274 43.7517 32.5004 43.3786 32.5004 42.9184C32.5004 42.4581 32.1274 42.0851 31.6671 42.0851H27.5555C27.7355 41.8676 27.9213 41.6417 28.1205 41.3984C29.4821 39.7317 31.5372 37.1293 33.5972 34.226C35.6411 31.4032 37.4807 28.4381 39.1022 25.3535C40.8039 22.0117 41.6672 19.2376 41.6672 17.1076C41.6729 12.6817 39.9167 8.43561 36.7864 5.30669C36.5773 5.0899 36.2675 5.00279 35.9761 5.07886C35.6847 5.15494 35.457 5.38228 35.3805 5.67359C35.304 5.9649 35.3907 6.27477 35.6072 6.48414C38.4248 9.30095 40.0055 13.1233 40.0005 17.1075C40.0005 18.9726 39.1989 21.4925 37.6172 24.5967C36.0324 27.6099 34.2344 30.5062 32.2372 33.2635C30.2056 36.1293 28.1747 38.6968 26.8289 40.3468C26.3814 40.8951 25.9789 41.3801 25.6355 41.7901C25.4753 41.9732 25.2438 42.078 25.0006 42.078C24.7573 42.078 24.5259 41.9731 24.3656 41.7901C24.0223 41.3802 23.6198 40.8951 23.1723 40.3468C21.8264 38.6977 19.7956 36.1301 17.7639 33.2635C15.7668 30.5062 13.9688 27.6099 12.3839 24.5967C10.8006 21.4925 10.0006 18.9726 10.0006 17.1075C10.0001 11.0715 13.6099 5.62047 19.1674 3.26499C22.9015 1.69916 27.1082 1.69916 30.8424 3.26499C31.1166 3.3812 31.432 3.34243 31.6697 3.16303C31.9075 2.98374 32.0316 2.69116 31.9951 2.39555C31.9587 2.09994 31.7674 1.84623 31.4932 1.73002C23.007 -1.84929 13.2259 2.1267 9.64398 10.6117C8.77532 12.667 8.32981 14.8763 8.33401 17.1075C8.33401 19.2375 9.1974 22.0117 10.8991 25.3576C12.5204 28.4409 14.3601 31.4046 16.4038 34.226Z" fill="#A17F5C"/>
<path d="M25.0004 9.58507C25.4606 9.58507 25.8337 9.21202 25.8337 8.75176C25.8337 8.29151 25.4606 7.91846 25.0004 7.91846C21.0248 7.91836 17.6027 10.7268 16.827 14.626C16.0513 18.5252 18.1381 22.4294 21.8111 23.9508C25.4841 25.4723 29.7203 24.1873 31.9291 20.8817C34.1379 17.5761 33.704 13.1705 30.8929 10.3593C30.6836 10.1427 30.3738 10.0558 30.0824 10.132C29.7911 10.2083 29.5636 10.4358 29.4873 10.7272C29.411 11.0186 29.4979 11.3283 29.7145 11.5376C31.9636 13.7865 32.3107 17.3109 30.5438 19.9554C28.7769 22.6 25.388 23.6281 22.4496 22.4111C19.5112 21.1941 17.8416 18.0708 18.462 14.9514C19.0823 11.8319 21.8199 9.58516 25.0004 9.58507Z" fill="#A17F5C"/>
<path d="M49.6863 45.8944L44.5613 36.7277C44.0979 35.9132 43.2308 35.4127 42.2938 35.4185H36.3546C35.8943 35.4185 35.5213 35.7916 35.5213 36.2518C35.5213 36.7121 35.8943 37.0851 36.3546 37.0851H42.2938C42.6274 37.0787 42.9386 37.2526 43.1079 37.5401L48.2313 46.7068C48.3709 46.9453 48.3679 47.2411 48.2238 47.4769C48.0536 47.7581 47.7458 47.9266 47.4171 47.9186H2.58367C2.25535 47.9264 1.94792 47.7578 1.77781 47.4769C1.63366 47.2411 1.63083 46.9453 1.77029 46.7068L6.89365 37.5401C7.06269 37.2527 7.37363 37.0788 7.70693 37.0851H13.6461C14.1064 37.0851 14.4794 36.7121 14.4794 36.2518C14.4794 35.7916 14.1064 35.4185 13.6461 35.4185H7.70703C6.76952 35.4124 5.90175 35.9129 5.43788 36.7277L0.31364 45.8944C-0.113608 46.6491 -0.103745 47.5749 0.339519 48.3203C0.806513 49.1141 1.66286 49.5968 2.58367 49.5854H47.4171C48.3377 49.5965 49.1937 49.1139 49.6605 48.3203C50.1038 47.5748 50.1136 46.6491 49.6863 45.8944Z" fill="#A17F5C"/>
<path d="M40.8338 39.5852H37.5005C37.336 39.5855 37.1751 39.6341 37.038 39.7252L34.538 41.3919C34.1551 41.6474 34.0518 42.1649 34.3071 42.5478C34.5626 42.9307 35.0801 43.034 35.463 42.7787L37.7505 41.252H40.8338C41.2941 41.252 41.6671 40.8789 41.6671 40.4187C41.6671 39.9583 41.2941 39.5852 40.8338 39.5852Z" fill="#A17F5C"/>
<path d="M35.834 45.4185C35.834 45.8788 36.207 46.2518 36.6673 46.2518H43.334C43.7943 46.2518 44.1673 45.8788 44.1673 45.4185C44.1673 44.9583 43.7943 44.5852 43.334 44.5852H36.6673C36.207 44.5852 35.834 44.9583 35.834 45.4185Z" fill="#A17F5C"/>
<path d="M15.0001 42.9184C15.3675 42.9189 15.6918 42.6786 15.7986 42.3271C15.9053 41.9755 15.7692 41.5955 15.4635 41.3917L12.9635 39.725C12.8262 39.6338 12.665 39.5851 12.5001 39.585H9.1668C8.70655 39.585 8.3335 39.9581 8.3335 40.4183C8.3335 40.8785 8.70664 41.2516 9.1668 41.2516H12.2501L14.5402 42.7782C14.6764 42.8693 14.8365 42.918 15.0001 42.9184Z" fill="#A17F5C"/>
<path d="M6.6668 44.5852C6.20654 44.5852 5.8335 44.9583 5.8335 45.4185C5.8335 45.8788 6.20654 46.2518 6.6668 46.2518H13.3335C13.7938 46.2518 14.1668 45.8788 14.1668 45.4185C14.1668 44.9583 13.7938 44.5852 13.3335 44.5852H6.6668Z" fill="#A17F5C"/>
</g>
<defs>
<clipPath id="clip0">
<rect width="50" height="50" fill="white"/>
</clipPath>
</defs>
</svg>
