<svg width="110" height="106" viewBox="0 0 110 106" fill="none" xmlns="http://www.w3.org/2000/svg">
<g clip-path="url(#clip0)">
<path d="M22.9902 6.83871H26.5386V10.2581H22.9902V6.83871Z" fill="white"/>
<path d="M22.9902 95.7419H26.5386V99.1613H22.9902V95.7419Z" fill="white"/>
<path d="M101.528 33.7336L96.5955 27.7939C95.4623 26.4282 93.7696 25.6452 91.8481 25.6452C90.5261 25.6452 89.2241 26.0776 88.1845 26.8623L50.1346 55.5578C48.6697 56.664 47.8285 58.326 47.8285 60.1175C47.8285 61.4273 48.2972 62.7129 49.1453 63.7347L50.7774 65.6999L29.3771 80.895C27.505 71.7155 26.5382 62.3773 26.5382 53C26.5382 39.543 28.4848 26.1636 32.3199 13.2275L33.3283 9.82397C33.5319 9.13108 33.635 8.41983 33.635 7.70858C33.635 3.45692 30.0476 0 25.5307 0C22.2145 0 19.2058 2.01021 18.0415 4.9988L17.7097 5.84362C15.3715 11.8584 13.4752 18.0902 12.0804 24.3662L11.8084 25.5901C9.80899 34.5817 8.79628 43.8021 8.79628 53C8.79628 62.1979 9.80899 71.4183 11.8084 80.4099L12.0804 81.6338C13.0758 86.1116 14.3354 90.5637 15.8203 94.933C12.4763 97.2312 9.60367 100.039 7.31836 103.341L10.2707 105.238C12.1212 102.564 14.4065 100.257 17.034 98.3148C17.2609 98.9284 17.4741 99.5478 17.7097 100.156L18.038 100.996C19.2041 103.99 22.2127 106 25.6355 106C30.0476 106 33.635 102.543 33.635 98.2914C33.635 97.5785 33.5319 96.8673 33.3283 96.1727L32.3199 92.7725C32.1857 92.3192 32.0722 91.8626 31.9422 91.4076L100.45 41.8954C101.94 40.8202 102.829 39.1072 102.829 37.314C102.829 36.0176 102.365 34.7479 101.528 33.7336ZM25.5307 102.581C23.6855 102.581 22.0126 101.463 21.3612 99.7957L21.0328 98.9559C18.7545 93.099 16.9092 87.0291 15.5491 80.9175L15.2771 79.6928C14.4489 75.9613 13.8312 72.183 13.3522 68.3871H19.4414V64.9677H12.9623C12.8506 63.8291 12.7596 62.6887 12.6799 61.5484H19.4414V58.129H12.485C12.4365 56.9887 12.407 55.85 12.3906 54.7097H19.4414V51.2903H12.3906C12.407 50.15 12.4365 49.0113 12.485 47.871H19.4414V44.4516H12.6799C12.7596 43.3113 12.8506 42.1709 12.9623 41.0323H19.4414V37.6129H13.3522C13.8312 33.8171 14.4489 30.0387 15.2788 26.3072L15.5509 25.0825C16.9118 18.9709 18.7562 12.9011 21.0328 7.04741L21.3646 6.20259C22.01 4.53716 23.6855 3.41935 25.6355 3.41935C28.0906 3.41935 30.0866 5.34274 30.0866 7.70858C30.0866 8.10594 30.0294 8.50247 29.9142 8.88732L28.9067 12.2875C24.9806 25.5291 22.9898 39.2266 22.9898 53C22.9898 66.7734 24.9806 80.4709 28.9067 93.7125L29.9142 97.1093C30.0294 97.4975 30.0866 97.8941 30.0866 98.2914C30.0866 100.657 28.0906 102.581 25.5307 102.581ZM98.322 39.1598L30.9581 87.8464C30.6774 86.7595 30.4288 85.6667 30.1767 84.5739L55.8549 66.3427L51.9166 61.5976C51.5684 61.1794 51.3769 60.6526 51.3769 60.1175C51.3769 59.3837 51.7208 58.7034 52.3212 58.2501L90.3685 29.5554C91.2677 28.875 92.9657 28.9001 93.8224 29.931L95.698 32.19L57.8829 60.1943L60.046 62.9058L97.9157 34.8606L98.7552 35.8707C99.0939 36.2781 99.2802 36.7906 99.2802 37.314C99.2802 38.037 98.9215 38.7257 98.322 39.1598Z" fill="white"/>
</g>
<defs>
<clipPath id="clip0">
<rect width="110" height="106" fill="white"/>
</clipPath>
</defs>
</svg>
