<svg width="50" height="50" viewBox="0 0 50 50" fill="none" xmlns="http://www.w3.org/2000/svg">
<g clip-path="url(#clip0)">
<path d="M1.11285 15.6562C1.41059 16.7532 2.41101 17.5113 3.54765 17.5011C3.71151 17.5012 3.87507 17.4856 4.036 17.4545L9.08566 16.4862L12.9704 15.6337C14.249 15.4038 15.1284 14.2193 14.9785 12.9289L14.5044 9.29328C14.4453 8.84077 15.4827 8.33914 16.4501 8.19335C22.0582 7.28599 27.7746 7.27115 33.3873 8.14921C34.9296 8.41502 35.2704 8.66256 35.3438 8.75503C35.4988 9.13772 35.5214 9.56123 35.4079 9.95827L35.0679 12.3748C34.8767 13.1561 35.0125 13.9815 35.4438 14.6605C36.0477 15.2986 36.8636 15.6947 37.7386 15.7746C38.3219 15.8862 38.7711 15.9987 39.2202 16.1079C39.6968 16.2262 40.1727 16.3445 40.7925 16.4628L45.3097 17.3344C46.0953 17.5661 46.937 17.5171 47.6904 17.1961C48.4834 16.6851 48.9971 15.8374 49.0828 14.8979L49.1103 14.7771C49.1978 14.3922 49.3137 14.0104 49.4295 13.6288C49.7592 12.7134 49.937 11.7501 49.9561 10.7774C49.8216 9.06302 49.0313 7.46655 47.7496 6.32014C41.98 0.657232 32.0006 0.00219727 25.0011 0.00219727C9.02151 0.00229492 2.93275 4.60199 0.638664 8.46091C0.00862811 9.52842 -0.164407 10.8048 0.158716 12.0015L1.11285 15.6562ZM2.07031 9.31418C4.14351 5.82525 9.80476 1.66888 25.0013 1.66888C31.7117 1.66888 41.2502 2.2747 46.5832 7.50932C47.5526 8.35643 48.1619 9.5419 48.2864 10.8233C48.2573 11.6169 48.1032 12.4009 47.8298 13.1464C47.7039 13.5631 47.5798 13.9839 47.4815 14.4063L47.4523 14.533C47.3131 15.1529 47.2023 15.5704 46.9165 15.7195C46.492 15.8351 46.0433 15.827 45.6232 15.6962L41.1093 14.8346C40.5261 14.723 40.0752 14.6105 39.6261 14.5013C39.1495 14.383 38.6736 14.2647 38.0554 14.1464C37.6563 14.0697 36.9871 13.9422 36.7746 13.6614C36.6408 13.3283 36.622 12.9599 36.7213 12.6148L37.0621 10.1983C37.261 9.38566 37.1355 8.52751 36.7121 7.80598C36.1738 7.03933 34.9331 6.73271 33.674 6.51524C27.8849 5.60681 21.9885 5.6197 16.2034 6.55362C14.3802 6.83026 12.6379 7.85353 12.8546 9.51758L13.3295 13.1523C13.3639 13.5765 13.0605 13.9535 12.6387 14.0105L8.75238 14.8546L3.72274 15.8179C3.288 15.9161 2.85141 15.6614 2.7228 15.2347L1.77199 11.5849C1.56185 10.8187 1.66936 10.0001 2.07031 9.31418Z" fill="#A17F5C"/>
<path d="M49.8511 38.0417C49.8428 38.02 49.8344 37.9992 49.8252 37.9801C49.7474 37.7729 49.6429 37.5769 49.5144 37.3968L38.9226 23.0228C38.2928 22.1717 37.2974 21.6689 36.2386 21.667H34.0721L33.3355 15.7732C33.3028 14.8766 32.5661 14.1669 31.6689 14.1675H29.1691C28.2486 14.1675 27.5025 14.9136 27.5025 15.8341V22.5003C27.5025 22.9605 27.8755 23.3336 28.3357 23.3336C28.7959 23.3336 29.169 22.9605 29.169 22.5003V15.8341H31.6688C31.6685 15.8686 31.6707 15.9032 31.6754 15.9374L32.5087 22.6036C32.5608 23.0206 32.9151 23.3335 33.3353 23.3336H36.2384C36.7676 23.3344 37.2652 23.5857 37.58 24.0111L47.5185 37.4993H40.8348C40.3746 37.4993 40.0015 37.8724 40.0015 38.3326C40.0015 38.7928 40.3746 39.1658 40.8348 39.1658H48.3343V45.8321C48.3343 47.2126 47.2151 48.3319 45.8345 48.3319H4.17082C2.79024 48.3319 1.67098 47.2127 1.67098 45.8321V39.1658H36.6687C37.1289 39.1658 37.5019 38.7927 37.5019 38.3326C37.5019 37.8723 37.1289 37.4993 36.6687 37.4993H2.48675L12.4252 24.0111C12.7401 23.5857 13.2376 23.3344 13.7669 23.3336H16.67C17.0902 23.3335 17.4445 23.0205 17.4966 22.6036L18.3298 15.9374C18.3345 15.9031 18.3368 15.8686 18.3365 15.8341H20.8363V22.5003C20.8363 22.9605 21.2093 23.3336 21.6696 23.3336H25.0026C25.4629 23.3336 25.8359 22.9605 25.8359 22.5003C25.8359 22.0401 25.4629 21.6671 25.0026 21.6671H22.5028V15.8342C22.5028 14.9137 21.7567 14.1676 20.8362 14.1676H18.3364C17.4392 14.167 16.7026 14.8767 16.6698 15.7733L15.934 21.6671H13.7674C12.7099 21.67 11.7159 22.1727 11.0868 23.0228L0.491081 37.3976C0.36189 37.5773 0.257405 37.7734 0.180262 37.9808C0.171083 37.9992 0.162782 38.02 0.154385 38.0408C0.0568324 38.3099 0.00615223 38.5937 0.00439453 38.8799V45.832C0.00712872 48.1318 1.87087 49.9956 4.17082 49.9984H45.8347C48.1346 49.9957 49.9983 48.1319 50.0012 45.832V38.8799C49.9994 38.5941 49.9487 38.3105 49.8511 38.0417Z" fill="#A17F5C"/>
<path d="M19.5105 27.9056C20.2779 27.4961 21.0977 27.193 21.9469 27.0048C23.9587 26.5557 26.0448 26.5557 28.0565 27.0048C28.347 27.0738 28.6522 26.982 28.8566 26.7643C29.061 26.5465 29.1332 26.2361 29.0459 25.9505C28.9586 25.6649 28.7251 25.4479 28.4339 25.3816C26.1737 24.8757 23.8296 24.8757 21.5693 25.3816C20.5716 25.6043 19.6089 25.962 18.7079 26.4449C17.918 26.8583 17.2219 27.4302 16.663 28.1247C15.5583 29.4527 15.5583 31.3798 16.663 32.7077C17.2219 33.4023 17.918 33.9743 18.7079 34.3876C19.609 34.8704 20.5716 35.2281 21.5693 35.4509C23.8292 35.9598 26.174 35.9598 28.4339 35.4509C29.4316 35.2282 30.3943 34.8705 31.2953 34.3876C32.0852 33.9742 32.7814 33.4023 33.3402 32.7077C34.4449 31.3798 34.4449 29.4527 33.3402 28.1247C33.1613 27.8815 32.8648 27.7542 32.5652 27.7918C32.2656 27.8294 32.0098 28.0261 31.8966 28.306C31.7833 28.5858 31.8304 28.9052 32.0194 29.1405C32.6615 29.8698 32.6615 30.9626 32.0194 31.692C31.5989 32.2022 31.0796 32.6223 30.4928 32.9269C29.7254 33.3364 28.9057 33.6395 28.0564 33.8277C26.0446 34.2768 23.9585 34.2768 21.9468 33.8277C21.0978 33.6397 20.2783 33.3366 19.5112 32.9269C18.924 32.6224 18.4044 32.2024 17.9837 31.692C17.3417 30.9626 17.3417 29.8698 17.9837 29.1405C18.4044 28.6303 18.9236 28.2103 19.5105 27.9056Z" fill="#A17F5C"/>
</g>
<defs>
<clipPath id="clip0">
<rect width="50" height="50" fill="white"/>
</clipPath>
</defs>
</svg>
